<svg width="86" height="86" viewBox="0 0 86 86" fill="none" xmlns="http://www.w3.org/2000/svg">
<path id="Vector" d="M84.33 42.6651C84.3332 48.9417 82.9164 55.1376 80.1855 60.7889C77.4546 66.4401 73.4806 71.4002 68.561 75.2976C61.2036 81.1596 52.0719 84.3458 42.665 84.3332C32.876 84.3332 23.88 80.953 16.769 75.3106C11.243 70.926 6.92055 65.2101 4.20677 58.6985C1.49299 52.187 0.476723 45.093 1.25322 38.0813C2.02971 31.0697 4.57354 24.37 8.6463 18.6101C12.7191 12.8503 18.1874 8.2188 24.5389 5.14978C30.8903 2.08076 37.917 0.674665 44.9602 1.06328C52.0035 1.45189 58.8328 3.62249 64.8081 7.37165C70.7834 11.1208 75.7091 16.3258 79.1236 22.4987C82.5381 28.6717 84.3295 35.6106 84.33 42.6651Z" fill="white" stroke="#323232" stroke-width="1.5" stroke-linecap="round" stroke-linejoin="round"/>
</svg>
