<svg width="20" height="20" viewBox="0 0 20 20" fill="none" xmlns="http://www.w3.org/2000/svg">
<g id="flowbite:arrow-up-right-from-square-outline">
<path id="Vector" d="M15 11.6666V15.6941C15.0001 15.8218 14.975 15.9483 14.9262 16.0664C14.8774 16.1844 14.8057 16.2917 14.7154 16.382C14.6251 16.4723 14.5178 16.5439 14.3998 16.5928C14.2817 16.6416 14.1552 16.6667 14.0275 16.6666H4.30583C4.17812 16.6666 4.05166 16.6414 3.93367 16.5926C3.81568 16.5437 3.70847 16.4721 3.61817 16.3817C3.52786 16.2914 3.45623 16.1842 3.40736 16.0662C3.35848 15.9483 3.33333 15.8218 3.33333 15.6941V5.97242C3.33322 5.84468 3.3583 5.71817 3.40713 5.60013C3.45597 5.48209 3.5276 5.37484 3.61792 5.28451C3.70825 5.19419 3.8155 5.12256 3.93354 5.07372C4.05158 5.02489 4.17809 4.99981 4.30583 4.99992H8.15416M11.86 3.33325H16.6667V8.13992M10.0925 9.90742L16.5742 3.42575" stroke="#323232" stroke-opacity="0.5" stroke-width="2" stroke-linecap="round" stroke-linejoin="round"/>
</g>
</svg>
