<?xml version="1.0" standalone="no"?>
<!DOCTYPE svg PUBLIC "-//W3C//DTD SVG 20010904//EN"
 "http://www.w3.org/TR/2001/REC-SVG-20010904/DTD/svg10.dtd">
<svg version="1.0" xmlns="http://www.w3.org/2000/svg"
 width="512.000000pt" height="512.000000pt" viewBox="0 0 512.000000 512.000000"
 preserveAspectRatio="xMidYMid meet">
<metadata>
Created by potrace 1.14, written by Peter Selinger 2001-2017
</metadata>
<g transform="translate(0.000000,512.000000) scale(0.100000,-0.100000)"
fill="#000000" stroke="none">
<path d="M2457 5044 c-73 -14 -182 -63 -222 -100 -31 -28 -32 -67 -3 -94 28
-26 50 -25 97 4 228 145 462 56 668 -252 54 -80 109 -183 170 -322 30 -65 96
-260 91 -265 -2 -2 -62 -22 -133 -43 -117 -35 -361 -123 -440 -157 -16 -7 -59
-26 -95 -41 -36 -15 -69 -31 -73 -34 -5 -4 -83 23 -175 60 -152 61 -394 146
-482 168 -34 9 -35 10 -32 55 2 36 -2 51 -18 67 -39 39 -94 20 -110 -39 l-10
-38 -58 13 c-66 16 -205 41 -277 49 -27 4 -61 8 -75 11 -37 6 -319 6 -363 0
-20 -3 -54 -8 -75 -11 -79 -11 -190 -48 -266 -88 -96 -51 -182 -139 -224 -229
-35 -76 -43 -110 -47 -206 -8 -168 50 -347 182 -566 70 -115 158 -234 261
-351 69 -78 65 -72 49 -95 -8 -11 -32 -40 -53 -63 -22 -23 -69 -80 -105 -127
-315 -406 -411 -742 -288 -1005 42 -89 166 -205 219 -205 35 0 60 28 60 67 0
26 -9 37 -50 67 -244 175 -191 533 143 973 41 54 99 125 130 158 l54 60 74
-71 c90 -87 175 -163 271 -240 40 -33 78 -63 84 -69 6 -5 52 -39 102 -75 l90
-65 7 -55 c12 -97 22 -172 31 -225 20 -120 28 -163 50 -266 14 -64 29 -131 34
-148 7 -26 6 -31 -8 -32 -21 -1 -37 -4 -88 -18 -68 -18 -82 -90 -24 -121 13
-7 39 -6 87 4 37 8 71 12 74 8 3 -4 21 -52 38 -107 125 -383 322 -692 527
-826 121 -78 269 -109 394 -80 275 62 521 371 699 876 45 126 29 118 176 90
50 -10 99 -18 110 -20 18 -2 75 -8 180 -21 56 -6 259 -5 325 2 206 22 372 92
476 201 80 83 151 263 124 313 -6 12 -23 25 -38 31 -39 15 -72 -14 -89 -80
-32 -125 -96 -203 -217 -261 -122 -59 -234 -78 -444 -78 -95 0 -191 4 -215 8
-23 5 -62 11 -87 14 -25 4 -52 8 -60 9 -8 2 -48 9 -87 17 -45 8 -73 18 -73 26
0 7 12 61 26 121 47 197 84 419 99 588 7 81 -3 69 191 221 71 56 185 152 253
214 l124 113 59 -62 c51 -54 64 -62 91 -59 38 4 63 42 54 79 -4 13 -29 48 -57
77 -27 29 -50 56 -50 60 0 4 18 27 41 52 237 263 406 541 464 765 22 86 27
227 10 299 -90 382 -541 526 -1227 392 l-117 -23 -22 66 c-52 157 -161 408
-209 481 -10 14 -39 59 -66 100 -174 265 -409 396 -637 354z m1764 -1082 c184
-39 302 -118 360 -239 26 -55 31 -78 33 -147 2 -141 -20 -228 -100 -388 -37
-75 -182 -302 -203 -318 -3 -3 -23 -26 -44 -52 -21 -26 -43 -53 -50 -60 -7 -8
-30 -34 -53 -59 l-41 -45 -55 50 c-111 104 -145 133 -228 202 -47 39 -127 103
-179 142 -52 39 -96 78 -97 86 -1 8 -5 41 -8 73 -4 32 -8 69 -10 83 -10 76
-19 137 -22 155 -2 10 -6 37 -10 60 -3 22 -15 83 -25 135 -23 107 -22 101 -43
193 -9 38 -16 72 -16 77 0 5 26 14 58 21 31 7 59 13 62 14 7 2 108 17 140 21
14 2 54 6 90 10 36 4 66 7 67 8 1 1 64 1 140 0 95 -1 168 -8 234 -22z m-2966
-7 c55 -4 102 -8 105 -10 3 -2 30 -6 60 -10 67 -8 220 -41 227 -49 3 -3 0 -27
-7 -53 -14 -58 -12 -47 -43 -208 -14 -71 -33 -182 -42 -245 -9 -63 -18 -124
-20 -135 -2 -11 -4 -32 -4 -46 -1 -19 -14 -35 -48 -59 -52 -37 -265 -200 -273
-209 -3 -4 -39 -35 -80 -71 -41 -36 -108 -97 -150 -137 l-74 -71 -41 46 c-167
188 -306 395 -368 547 -165 406 -5 667 438 711 33 3 61 7 62 8 4 4 164 -2 258
-9z m2060 -135 c24 -94 27 -104 54 -245 11 -55 22 -118 26 -140 3 -23 7 -50 9
-60 2 -11 7 -51 11 -88 l8 -69 -49 34 c-77 53 -261 168 -269 168 -4 0 -19 8
-33 19 -37 26 -156 91 -296 162 -65 33 -117 62 -115 63 27 23 623 232 636 222
0 0 9 -30 18 -66z m-1363 -16 c78 -25 193 -66 255 -90 61 -24 117 -44 124 -44
22 0 -2 -16 -106 -71 -146 -77 -342 -190 -456 -264 l-100 -65 6 42 c3 24 8 54
10 68 2 14 7 45 10 70 3 25 8 52 10 60 2 8 7 31 10 50 3 19 10 53 15 75 5 22
11 54 15 72 3 18 9 43 15 57 5 15 8 26 5 26 -2 0 1 14 6 30 6 17 17 30 24 30
7 0 78 -21 157 -46z m761 -317 c318 -163 710 -406 726 -451 12 -32 16 -150 16
-491 0 -282 -6 -470 -16 -479 -2 -2 -55 -38 -117 -80 -179 -121 -401 -251
-619 -362 l-202 -103 -156 80 c-86 44 -206 110 -268 146 -62 36 -121 71 -132
77 -12 6 -82 51 -157 99 l-136 88 -7 87 c-4 48 -9 110 -11 137 -12 132 -4 701
11 780 2 11 4 34 4 52 1 27 9 38 54 68 129 89 281 184 402 250 28 15 55 31 60
36 17 13 329 169 338 169 5 0 99 -46 210 -103z m-1210 -649 c-8 -196 -8 -403
1 -585 l7 -135 -45 33 c-25 17 -53 39 -63 48 -10 9 -27 23 -39 31 -52 37 -191
158 -294 257 l-75 72 61 58 c113 109 435 382 452 383 1 0 -1 -73 -5 -162z
m2157 46 c76 -58 222 -184 303 -261 l68 -65 -58 -55 c-74 -71 -239 -214 -323
-280 l-65 -51 0 383 c0 253 3 381 10 377 6 -3 35 -24 65 -48z m-244 -1051
c-20 -167 -102 -582 -118 -599 -12 -11 -319 88 -512 165 -142 57 -140 49 -18
110 191 97 612 347 628 372 3 5 10 9 16 9 7 0 8 -20 4 -57z m-1646 -53 c19
-11 47 -28 62 -38 27 -17 224 -133 291 -171 21 -11 78 -42 129 -68 l91 -47
-44 -19 c-75 -32 -198 -77 -334 -122 -205 -67 -179 -73 -208 53 -14 59 -28
121 -31 137 -4 17 -9 41 -11 55 -3 14 -7 39 -10 55 -3 17 -7 41 -10 55 -2 14
-7 45 -10 70 -4 25 -8 58 -11 74 l-5 28 33 -20 c18 -12 49 -31 68 -42z m859
-455 c168 -72 374 -147 509 -186 59 -17 111 -34 115 -38 4 -4 -6 -48 -24 -97
-183 -523 -430 -808 -695 -806 -220 1 -449 243 -618 654 -34 84 -96 262 -96
278 0 5 15 11 33 15 86 18 448 148 607 219 19 8 36 15 37 16 2 0 61 -25 132
-55z"/>
<path d="M2469 3279 c-81 -13 -103 -41 -195 -244 -42 -94 -87 -195 -101 -225
-72 -156 -83 -184 -83 -213 0 -73 65 -127 151 -127 35 0 40 -3 34 -17 -4 -10
-45 -139 -91 -286 -71 -227 -82 -271 -73 -290 25 -46 69 -50 116 -8 107 94
179 158 193 171 13 12 57 51 206 185 6 6 47 42 90 81 44 39 110 98 147 131 38
33 75 69 82 80 54 77 -6 193 -99 193 -20 0 -36 2 -36 5 0 6 119 236 155 300
45 79 44 151 -2 206 -48 56 -68 61 -273 63 -103 0 -202 -2 -221 -5z m390 -133
c17 -11 14 -31 -12 -78 -13 -24 -49 -90 -79 -148 -146 -276 -150 -286 -116
-317 20 -18 36 -21 120 -22 l58 -1 -88 -77 c-48 -42 -94 -84 -103 -92 -9 -9
-34 -31 -55 -50 -47 -42 -206 -183 -253 -225 -19 -17 -32 -26 -29 -21 3 6 18
51 33 100 15 50 43 137 61 194 56 172 48 190 -88 193 l-86 1 18 41 c10 23 42
95 72 161 31 66 65 143 78 170 12 28 35 78 51 112 16 35 35 63 45 65 33 6 361
1 373 -6z"/>
<path d="M1877 4819 c-130 -30 -234 -151 -241 -281 -15 -274 296 -428 509
-254 101 83 135 240 77 361 -29 60 -87 122 -139 148 -57 29 -146 40 -206 26z
m152 -144 c52 -26 84 -80 89 -146 4 -51 1 -64 -24 -104 -100 -159 -346 -76
-327 109 13 126 150 200 262 141z"/>
<path d="M4470 2269 c-126 -19 -227 -112 -258 -239 -40 -166 83 -341 258 -369
99 -16 189 16 265 93 92 95 113 231 54 348 -60 118 -190 186 -319 167z m133
-151 c99 -55 117 -194 36 -276 -46 -47 -100 -64 -161 -51 -154 35 -194 232
-63 321 62 41 120 43 188 6z"/>
<path d="M993 1385 c-101 -23 -174 -83 -219 -180 -19 -41 -23 -63 -21 -130 2
-67 7 -89 32 -133 16 -29 44 -67 62 -83 31 -26 133 -85 133 -76 0 3 18 1 40
-3 82 -15 194 24 256 89 122 128 117 322 -12 441 -75 69 -174 97 -271 75z
m130 -134 c56 -19 100 -75 111 -141 16 -105 -68 -203 -174 -203 -155 0 -240
180 -138 294 53 60 120 76 201 50z"/>
</g>
</svg>
