<svg width="30" height="30" viewBox="0 0 30 30" fill="none" xmlns="http://www.w3.org/2000/svg">
<g id="contact" clip-path="url(#clip0_48_8)">
<path id="Vector" d="M2.5 26.25C1.8125 26.25 1.22417 26.0054 0.735 25.5163C0.245833 25.0271 0.000833333 24.4383 0 23.75V6.25C0 5.5625 0.245 4.97417 0.735 4.485C1.225 3.99583 1.81333 3.75083 2.5 3.75H27.5C28.1875 3.75 28.7763 3.995 29.2663 4.485C29.7563 4.975 30.0008 5.56333 30 6.25V23.75C30 24.4375 29.7554 25.0263 29.2663 25.5163C28.7771 26.0063 28.1883 26.2508 27.5 26.25H2.5ZM19.875 23.75H27.5V6.25H2.5V23.75H2.625C3.5 22.1875 4.70833 20.9637 6.25 20.0788C7.79167 19.1937 9.45833 18.7508 11.25 18.75C13.0417 18.7492 14.7083 19.1921 16.25 20.0788C17.7917 20.9654 19 22.1892 19.875 23.75ZM11.25 17.5C12.2917 17.5 13.1771 17.1354 13.9062 16.4062C14.6354 15.6771 15 14.7917 15 13.75C15 12.7083 14.6354 11.8229 13.9062 11.0938C13.1771 10.3646 12.2917 10 11.25 10C10.2083 10 9.32292 10.3646 8.59375 11.0938C7.86458 11.8229 7.5 12.7083 7.5 13.75C7.5 14.7917 7.86458 15.6771 8.59375 16.4062C9.32292 17.1354 10.2083 17.5 11.25 17.5ZM23.75 22.5L26.25 20L24.375 17.5H22.3125C22.1875 17.125 22.0833 16.7242 22 16.2975C21.9167 15.8708 21.875 15.4383 21.875 15C21.875 14.5617 21.9167 14.14 22 13.735C22.0833 13.33 22.1875 12.9183 22.3125 12.5H24.375L26.25 10L23.75 7.5C22.625 8.375 21.7188 9.48458 21.0312 10.8288C20.3438 12.1729 20 13.5633 20 15C20 16.4367 20.3438 17.8275 21.0312 19.1725C21.7188 20.5175 22.625 21.6267 23.75 22.5ZM5.6875 23.75H16.8125C16.1042 22.9583 15.2654 22.3438 14.2963 21.9062C13.3271 21.4688 12.3117 21.25 11.25 21.25C10.1883 21.25 9.17792 21.4688 8.21875 21.9062C7.25958 22.3438 6.41583 22.9583 5.6875 23.75ZM11.25 15C10.8958 15 10.5992 14.88 10.36 14.64C10.1208 14.4 10.0008 14.1033 10 13.75C9.99917 13.3967 10.1192 13.1 10.36 12.86C10.6008 12.62 10.8975 12.5 11.25 12.5C11.6025 12.5 11.8996 12.62 12.1413 12.86C12.3829 13.1 12.5025 13.3967 12.5 13.75C12.4975 14.1033 12.3775 14.4004 12.14 14.6413C11.9025 14.8821 11.6058 15.0017 11.25 15Z" fill="#323232" fill-opacity="0.75"/>
</g>
<defs>
<clipPath id="clip0_48_8">
<rect width="30" height="30" fill="white"/>
</clipPath>
</defs>
</svg>
