<svg width="30" height="30" viewBox="0 0 30 30" fill="none" xmlns="http://www.w3.org/2000/svg">
<g id="Experience">
<path id="Vector" d="M29 5.50095V23H1V5.50095H9.75V3.75104C9.75 3.50496 9.79557 3.27711 9.88672 3.06749C9.97786 2.85786 10.1009 2.67558 10.2559 2.52064C10.4108 2.3657 10.5977 2.23811 10.8164 2.13785C11.0352 2.0376 11.263 1.99203 11.5 2.00114H18.5C18.7461 2.00114 18.974 2.04671 19.1836 2.13785C19.3932 2.22899 19.5755 2.35203 19.7305 2.50697C19.8854 2.66191 20.013 2.84875 20.1133 3.06749C20.2135 3.28623 20.2591 3.51408 20.25 3.75104V5.50095H29ZM11.5 5.50095H18.5V3.75104H11.5V5.50095ZM2.75 7.25085V9.78001L11.5 14.1411V12.5006H18.5V14.1411L27.25 9.78001V7.25085H2.75ZM13.25 14.2505V16.0004H16.75V14.2505H13.25ZM27.25 21.2501V11.7213L18.5 16.1097V17.7503H11.5V16.1097L2.75 11.7213V21.2501H27.25Z" fill="#323232" fill-opacity="0.75"/>
</g>
</svg>
