<svg width="40" height="40" viewBox="0 0 40 40" fill="none" xmlns="http://www.w3.org/2000/svg">
<g id="material-symbols-light:call-outline">
<path id="Vector" d="M31.55 33.3332C28.7411 33.3332 25.8611 32.6298 22.91 31.2232C19.9589 29.8165 17.2172 27.8415 14.685 25.2982C12.1528 22.7548 10.1834 20.0132 8.77669 17.0732C7.37002 14.1332 6.66669 11.2587 6.66669 8.44984C6.66669 7.94095 6.83335 7.51706 7.16669 7.17817C7.50002 6.83928 7.91669 6.66873 8.41669 6.6665H12.5384C12.9917 6.6665 13.3872 6.80928 13.725 7.09484C14.0628 7.38039 14.2911 7.7465 14.41 8.19317L15.2367 12.1665C15.3145 12.6332 15.3006 13.0404 15.195 13.3882C15.0895 13.7359 14.9045 14.0209 14.64 14.2432L10.9834 17.6532C11.6678 18.8943 12.4239 20.0476 13.2517 21.1132C14.0795 22.1787 14.9628 23.1882 15.9017 24.1415C16.8684 25.1082 17.9095 26.0082 19.025 26.8415C20.1406 27.6737 21.365 28.4593 22.6984 29.1982L26.2634 25.5698C26.5345 25.2776 26.8395 25.0848 27.1784 24.9915C27.5161 24.8993 27.8906 24.8809 28.3017 24.9365L31.8067 25.6532C32.26 25.7643 32.6278 25.9926 32.91 26.3382C33.1922 26.6837 33.3334 27.0793 33.3334 27.5248V31.5832C33.3334 32.0832 33.1634 32.4998 32.8234 32.8332C32.4834 33.1665 32.0578 33.3332 31.55 33.3332ZM10.2 16.0898L13.4 13.1482C13.5056 13.0626 13.5745 12.9448 13.6067 12.7948C13.64 12.6448 13.6345 12.5059 13.59 12.3782L12.8517 8.84484C12.8084 8.67484 12.7334 8.54706 12.6267 8.4615C12.52 8.37595 12.3817 8.33317 12.2117 8.33317H8.79169C8.66391 8.33317 8.55724 8.37595 8.47169 8.4615C8.38613 8.54706 8.34335 8.65373 8.34335 8.7815C8.37558 9.92039 8.55391 11.1093 8.87835 12.3482C9.2028 13.5871 9.64224 14.8343 10.2 16.0898ZM24.285 29.9798C25.4117 30.5376 26.6117 30.9504 27.885 31.2182C29.1606 31.4848 30.2717 31.6276 31.2184 31.6465C31.3461 31.6465 31.4528 31.6037 31.5384 31.5182C31.6239 31.4326 31.6667 31.3265 31.6667 31.1998V27.8532C31.6667 27.6832 31.6239 27.5443 31.5384 27.4365C31.4528 27.3298 31.325 27.2554 31.155 27.2132L28.0717 26.5815C27.9428 26.5382 27.83 26.5326 27.7334 26.5648C27.6378 26.5982 27.5367 26.6676 27.43 26.7732L24.285 29.9798Z" fill="#323232"/>
</g>
</svg>
