<svg width="27" height="27" viewBox="0 0 27 27" fill="none" xmlns="http://www.w3.org/2000/svg">
<g id="fluent:brain-circuit-24-regular">
<path id="Vector" d="M8.046 3.38853C8.982 2.65952 10.206 2.25677 11.4221 2.25677C12.15 2.25677 12.7384 2.50652 13.185 2.90365C13.305 3.01165 13.4126 3.12565 13.5079 3.24565C13.6031 3.12565 13.7107 3.01165 13.8307 2.90365C14.2774 2.50652 14.8657 2.25677 15.5936 2.25677C16.8097 2.25677 18.0349 2.65952 18.9686 3.38853C19.6976 3.9544 20.268 4.73627 20.4919 5.68015C20.9644 5.7589 21.384 5.99965 21.7237 6.31803C22.2637 6.8254 22.6496 7.5589 22.8915 8.31377C23.1379 9.0799 23.2605 9.94053 23.2234 10.7674C23.2042 11.1904 23.1424 11.6224 23.0242 12.0353L23.0974 12.069C23.5136 12.2648 23.8511 12.5719 24.1042 12.9803C24.5824 13.7509 24.7511 14.8601 24.7511 16.2743C24.7511 17.8999 24.129 19.0035 23.3302 19.6886C22.9141 20.0454 22.4272 20.3099 21.9015 20.4649C21.7096 21.3437 21.3177 22.1663 20.7562 22.869C19.9429 23.886 18.6784 24.7455 16.9796 24.7455C15.6184 24.7455 14.5462 23.9918 13.8577 23.2718C13.7352 23.1435 13.6188 23.0094 13.509 22.8701C13.3988 23.0091 13.282 23.1427 13.1591 23.2706C12.4706 23.9929 11.3985 24.7455 10.0372 24.7455C8.33737 24.7455 7.07287 23.886 6.26062 22.869C5.69832 22.1666 5.30564 21.3439 5.11312 20.4649C4.5878 20.3098 4.10127 20.0452 3.6855 19.6886C2.88675 19.0024 2.26575 17.8999 2.26575 16.2743C2.26575 14.8601 2.4345 13.7509 2.9115 12.9803C3.1648 12.5609 3.54222 12.2307 3.9915 12.0353C3.87697 11.6216 3.81016 11.1962 3.79237 10.7674C3.75525 9.94053 3.87787 9.0799 4.12425 8.31377C4.36612 7.56002 4.75087 6.8254 5.292 6.31803C5.62954 5.98692 6.05867 5.76471 6.52387 5.68015C6.74887 4.73515 7.31812 3.9544 8.046 3.38853ZM9.08325 4.7194C8.469 5.19753 8.109 5.83427 8.109 6.56777C8.1089 6.7014 8.07706 6.83309 8.01611 6.952C7.95516 7.07091 7.86684 7.17365 7.75842 7.25175C7.65 7.32985 7.52458 7.38109 7.39248 7.40124C7.26039 7.42139 7.1254 7.40987 6.99862 7.36765C6.8445 7.3159 6.68137 7.32827 6.44737 7.54877C6.18637 7.7929 5.922 8.23502 5.73075 8.82902C5.53846 9.43051 5.45317 10.0611 5.47875 10.692C5.50687 11.3175 5.65537 11.8373 5.88937 12.1883C5.92764 12.2467 5.95897 12.3094 5.98275 12.375H7.2C8.00996 12.3749 8.78997 12.6812 9.38329 13.2326C9.97661 13.784 10.3393 14.5395 10.3984 15.3473C10.883 15.5407 11.2854 15.8965 11.5366 16.3538C11.7878 16.8111 11.8722 17.3415 11.7755 17.8543C11.6787 18.367 11.4068 18.8302 11.0062 19.1645C10.6056 19.4988 10.1012 19.6835 9.57944 19.687C9.05767 19.6905 8.55091 19.5125 8.1459 19.1835C7.7409 18.8545 7.46282 18.395 7.35927 17.8836C7.25572 17.3722 7.33313 16.8407 7.57825 16.38C7.82338 15.9194 8.22098 15.5583 8.703 15.3585C8.64956 14.9981 8.46837 14.669 8.19246 14.4311C7.91655 14.1932 7.56431 14.0624 7.2 14.0625H4.24687C4.07812 14.454 3.95325 15.1301 3.95325 16.2743C3.95325 17.4229 4.37062 18.0529 4.78462 18.4084C5.238 18.7965 5.73637 18.8978 5.88037 18.8978C6.10415 18.8978 6.31876 18.9867 6.47699 19.1449C6.63523 19.3031 6.72412 19.5177 6.72412 19.7415C6.72412 20.214 6.98512 21.0724 7.57912 21.8149C8.15062 22.5315 8.96512 23.058 10.0372 23.058C10.7539 23.058 11.4131 22.6553 11.9385 22.1063C12.1927 21.8385 12.3907 21.5606 12.5212 21.3356C12.57 21.2512 12.6132 21.1636 12.6506 21.0735L12.6574 21.0578V10.4063H11.6494C11.4536 10.8903 11.0955 11.2912 10.6365 11.5402C10.1776 11.7892 9.64632 11.8708 9.13378 11.7711C8.62124 11.6714 8.15935 11.3965 7.82726 10.9935C7.49517 10.5906 7.31357 10.0847 7.31357 9.56252C7.31357 9.04037 7.49517 8.53447 7.82726 8.13153C8.15935 7.72859 8.62124 7.45369 9.13378 7.35395C9.64632 7.25421 10.1776 7.33584 10.6365 7.58484C11.0955 7.83385 11.4536 8.23473 11.6494 8.71877H12.6574V5.86352L12.654 5.7994C12.6343 5.45298 12.5661 5.11102 12.4515 4.78352C12.3502 4.51352 12.2186 4.30315 12.0634 4.16477C11.925 4.04102 11.7337 3.94427 11.4221 3.94427C10.5604 3.94427 9.7065 4.23452 9.08212 4.72053M14.3595 19.125V21.0578L14.3651 21.0735C14.3876 21.1335 14.4311 21.2209 14.4956 21.3356C14.625 21.5606 14.823 21.8385 15.0784 22.1063C15.6026 22.6553 16.263 23.058 16.9796 23.058C18.0506 23.058 18.8651 22.5315 19.4377 21.8149C20.0306 21.0724 20.2927 20.2129 20.2927 19.7415C20.2927 19.5177 20.3816 19.3031 20.5399 19.1449C20.6981 18.9867 20.9127 18.8978 21.1365 18.8978C21.2805 18.8978 21.7777 18.7965 22.2322 18.4084C22.6451 18.0529 23.0625 17.4229 23.0625 16.2743C23.0625 14.9153 22.8847 14.2155 22.6699 13.8701C22.6026 13.7507 22.5006 13.6546 22.3774 13.5945C22.2637 13.5405 22.0927 13.5 21.8284 13.5C21.6757 13.5 21.5258 13.4586 21.3948 13.3801C21.2638 13.3016 21.1566 13.189 21.0845 13.0544C21.0125 12.9198 20.9783 12.7681 20.9857 12.6155C20.993 12.463 21.0417 12.3153 21.1264 12.1883C21.3604 11.8373 21.5089 11.3175 21.5381 10.692C21.5633 10.061 21.4777 9.43045 21.285 8.82902C21.0937 8.23502 20.8294 7.79402 20.5695 7.54877C20.3344 7.32827 20.1712 7.3159 20.0182 7.36765C19.8914 7.41009 19.7563 7.42178 19.624 7.40173C19.4918 7.38169 19.3662 7.33049 19.2577 7.25236C19.1491 7.17423 19.0607 7.07141 18.9996 6.95239C18.9386 6.83336 18.9068 6.70153 18.9067 6.56777C18.9067 5.83427 18.5467 5.19753 17.9325 4.7194C17.3104 4.23453 16.4554 3.94315 15.5925 3.94315C15.282 3.94315 15.0919 4.04102 14.9524 4.16365C14.7767 4.33676 14.6441 4.54869 14.5654 4.7824C14.4381 5.12908 14.3685 5.49431 14.3595 5.86352V17.4375H15.075C15.4778 17.4375 15.8641 17.2775 16.1489 16.9927C16.4337 16.7079 16.5937 16.3216 16.5937 15.9188V13.8994C16.1097 13.7036 15.7088 13.3455 15.4598 12.8866C15.2108 12.4276 15.1292 11.8963 15.2289 11.3838C15.3287 10.8713 15.6036 10.4094 16.0065 10.0773C16.4094 9.7452 16.9153 9.56359 17.4375 9.56359C17.9597 9.56359 18.4655 9.7452 18.8685 10.0773C19.2714 10.4094 19.5463 10.8713 19.6461 11.3838C19.7458 11.8963 19.6642 12.4276 19.4152 12.8866C19.1662 13.3455 18.7653 13.7036 18.2812 13.8994V15.9188C18.2812 16.7691 17.9434 17.5846 17.3422 18.1859C16.7409 18.7872 15.9253 19.125 15.075 19.125H14.3595ZM9.5625 9.00002C9.41331 9.00002 9.27024 9.05929 9.16475 9.16478C9.05926 9.27027 9 9.41334 9 9.56252C9 9.71171 9.05926 9.85478 9.16475 9.96027C9.27024 10.0658 9.41331 10.125 9.5625 10.125C9.71168 10.125 9.85476 10.0658 9.96025 9.96027C10.0657 9.85478 10.125 9.71171 10.125 9.56252C10.125 9.41334 10.0657 9.27027 9.96025 9.16478C9.85476 9.05929 9.71168 9.00002 9.5625 9.00002ZM9 17.4375C9 17.5867 9.05926 17.7298 9.16475 17.8353C9.27024 17.9408 9.41331 18 9.5625 18C9.71168 18 9.85476 17.9408 9.96025 17.8353C10.0657 17.7298 10.125 17.5867 10.125 17.4375C10.125 17.2883 10.0657 17.1453 9.96025 17.0398C9.85476 16.9343 9.71168 16.875 9.5625 16.875C9.41331 16.875 9.27024 16.9343 9.16475 17.0398C9.05926 17.1453 9 17.2883 9 17.4375ZM16.875 11.8125C16.875 11.9617 16.9343 12.1048 17.0397 12.2103C17.1452 12.3158 17.2883 12.375 17.4375 12.375C17.5867 12.375 17.7298 12.3158 17.8352 12.2103C17.9407 12.1048 18 11.9617 18 11.8125C18 11.6633 17.9407 11.5203 17.8352 11.4148C17.7298 11.3093 17.5867 11.25 17.4375 11.25C17.2883 11.25 17.1452 11.3093 17.0397 11.4148C16.9343 11.5203 16.875 11.6633 16.875 11.8125Z" fill="#323232" fill-opacity="0.75"/>
</g>
</svg>
