<svg width="30" height="30" viewBox="0 0 30 30" fill="none" xmlns="http://www.w3.org/2000/svg">
<g id="Work">
<path id="Vector" d="M19.375 16.875C19.375 19.375 16.25 21.25 16.25 23.125H13.75C13.75 21.25 10.625 19.375 10.625 16.875C10.625 14.4625 12.5875 12.5 15 12.5C17.4125 12.5 19.375 14.4625 19.375 16.875ZM16.25 24.375H13.75V26.25H16.25V24.375ZM23.75 16.25C23.75 18.35 23.0125 20.2625 21.775 21.775L23.55 23.55C24.5108 22.4282 25.2408 21.1278 25.6981 19.7234C26.1554 18.3189 26.331 16.838 26.2149 15.3655C26.0987 13.8931 25.6932 12.458 25.0214 11.1426C24.3496 9.82722 23.4248 8.65732 22.3 7.7L20.525 9.475C21.5313 10.2944 22.3428 11.3275 22.9006 12.4993C23.4584 13.671 23.7485 14.9522 23.75 16.25ZM20 6.25L15 1.25V5C12.0163 5 9.15483 6.18526 7.04505 8.29505C4.93526 10.4048 3.75 13.2663 3.75 16.25C3.75 19.0375 4.775 21.5875 6.45 23.55L8.225 21.775C6.94493 20.2186 6.24664 18.2652 6.25 16.25C6.25 11.425 10.175 7.5 15 7.5V11.25L20 6.25Z" fill="#323232" fill-opacity="0.75"/>
</g>
</svg>
