<svg width="45" height="45" viewBox="0 0 45 45" fill="none" xmlns="http://www.w3.org/2000/svg">
<g id="azure sql">
<path id="Vector" d="M22.5 12.8496C13.6505 12.8496 6.47508 10.3503 6.47508 7.05054V37.9494C6.47508 41.1247 13.5257 43.6995 22.2747 43.7501H22.5C31.3495 43.7501 38.5249 41.2495 38.5249 37.9494V7.05054C38.5249 10.2751 31.3495 12.8496 22.5 12.8496Z" fill="url(#paint0_linear_93_150)"/>
<path id="Vector_2" d="M38.5249 7.05054C38.5249 10.2751 31.3495 12.8499 22.5 12.8499C13.6505 12.8499 6.47508 10.3503 6.47508 7.05054C6.47508 3.75042 13.6505 1.24976 22.5 1.24976C31.3495 1.24976 38.5249 3.75042 38.5249 7.05054Z" fill="#E8E8E8"/>
<path id="Vector_3" d="M34.8005 6.57527C34.8005 8.62559 29.2746 10.2751 22.5 10.2751C15.7254 10.2751 10.1995 8.62559 10.1995 6.57527C10.1995 4.52496 15.7254 2.90039 22.5 2.90039C29.2746 2.90039 34.8005 4.54957 34.8005 6.57527Z" fill="#50E6FF"/>
<path id="Vector_4" d="M22.5 7.49952C19.2005 7.41583 15.9111 7.898 12.7744 8.9251C15.9139 9.93344 19.2045 10.3902 22.5 10.2751C25.8022 10.3718 29.0953 9.88072 32.2256 8.82491C29.08 7.8456 25.793 7.39767 22.5 7.49952Z" fill="#198AB3"/>
<path id="Vector_5" d="M32.2502 28.4998V20.0008H29.9995V30.3251H36.1505V28.4998H32.2502ZM14.4003 24.325C13.9355 24.1385 13.5045 23.8769 13.1245 23.5505C13.0237 23.4438 12.9453 23.318 12.8939 23.1805C12.8424 23.0431 12.819 22.8967 12.825 22.75C12.8174 22.6033 12.848 22.4571 12.9138 22.3257C12.9795 22.1942 13.0782 22.0821 13.2001 22.0001C13.5078 21.7874 13.8769 21.6818 14.2506 21.6995C15.1408 21.6599 16.0193 21.9146 16.7502 22.4245V20.2754C15.9519 19.977 15.1021 19.8411 14.2506 19.8756C13.2696 19.823 12.3023 20.1242 11.5246 20.7243C11.1858 20.9857 10.9141 21.3239 10.7317 21.7109C10.5493 22.0979 10.4615 22.5228 10.4755 22.9504C10.4755 24.2248 11.2746 25.2247 12.9751 25.9745C13.5271 26.2094 14.0474 26.5114 14.5255 26.8752C14.6424 26.9732 14.7365 27.0955 14.8012 27.2336C14.8659 27.3717 14.8998 27.5222 14.9003 27.6747C14.9003 27.9837 14.7505 28.272 14.5005 28.4506C14.1597 28.6491 13.7685 28.7445 13.3745 28.7252C12.369 28.7168 11.4008 28.3435 10.6499 27.6747V29.9996C11.4754 30.4259 12.3968 30.6325 13.3253 30.5997C14.3729 30.6616 15.4111 30.3719 16.2749 29.7742C16.5798 29.4855 16.8132 29.1296 16.9565 28.7349C17.0998 28.3402 17.1491 27.9174 17.1003 27.5003C17.1125 26.8603 16.8902 26.238 16.4753 25.7506C15.8913 25.1351 15.1843 24.6494 14.4003 24.325ZM27.5003 28.2994C28.0679 27.3491 28.354 26.2571 28.3254 25.1505C28.2689 24.2132 27.9858 23.3037 27.5003 22.5001C27.11 21.7196 26.5023 21.0686 25.7505 20.6255C24.9886 20.1928 24.1261 19.9682 23.2499 19.9744C22.3056 19.9538 21.3731 20.1872 20.5499 20.6501C19.7778 21.0804 19.1447 21.7222 18.7249 22.5001C18.2826 23.3839 18.0598 24.3613 18.0752 25.3495C18.0802 26.2182 18.2856 27.0741 18.6753 27.8505C19.0571 28.6223 19.6568 29.2654 20.4001 29.7001C21.1554 30.1597 22.0161 30.4179 22.8997 30.4499L25.0502 32.9495H28.0754L24.9993 30.2003C26.0351 29.8894 26.9234 29.2142 27.5003 28.2994ZM24.9993 27.6747C24.7719 27.9575 24.4821 28.1837 24.1526 28.3354C23.823 28.4872 23.4628 28.5605 23.1001 28.5494C22.7346 28.5614 22.3715 28.486 22.041 28.3296C21.7104 28.1731 21.422 27.94 21.1996 27.6497C20.672 26.9276 20.4153 26.0429 20.4743 25.1505C20.4168 24.2578 20.6734 23.3732 21.1996 22.6498C21.4347 22.3596 21.732 22.1259 22.0695 21.9659C22.407 21.8058 22.7762 21.7236 23.1497 21.7252C23.5149 21.7091 23.8783 21.7853 24.2062 21.9469C24.5341 22.1086 24.816 22.3503 25.0256 22.6498C25.5178 23.3872 25.7547 24.2656 25.6999 25.1505C25.7878 26.0497 25.5381 26.9495 24.9993 27.6747Z" fill="url(#paint1_radial_93_150)"/>
</g>
<defs>
<linearGradient id="paint0_linear_93_150" x1="6.475" y1="25.3999" x2="38.525" y2="25.3999" gradientUnits="userSpaceOnUse">
<stop stop-color="#005BA1"/>
<stop offset="0.07" stop-color="#0060A9"/>
<stop offset="0.36" stop-color="#0071C8"/>
<stop offset="0.52" stop-color="#0078D4"/>
<stop offset="0.64" stop-color="#0074CD"/>
<stop offset="0.82" stop-color="#006ABB"/>
<stop offset="1" stop-color="#005BA1"/>
</linearGradient>
<radialGradient id="paint1_radial_93_150" cx="0" cy="0" r="1" gradientUnits="userSpaceOnUse" gradientTransform="translate(18327.1 5900.08) scale(13257.5 3438.88)">
<stop stop-color="#F2F2F2"/>
<stop offset="0.58" stop-color="#EEEEEE"/>
<stop offset="1" stop-color="#E6E6E6"/>
</radialGradient>
</defs>
</svg>
