<svg width="45" height="45" viewBox="0 0 45 45" fill="none" xmlns="http://www.w3.org/2000/svg">
<g id="devicon:figma" clip-path="url(#clip0_93_201)">
<path id="Vector" d="M15.9961 45.3516C20.1797 45.3516 23.5547 41.9766 23.5547 37.793V30.2344H15.9961C11.8125 30.2344 8.4375 33.6094 8.4375 37.793C8.4375 41.9766 11.8125 45.3516 15.9961 45.3516Z" fill="#0ACF83"/>
<path id="Vector_2" d="M8.4375 22.6758C8.4375 18.4922 11.8125 15.1172 15.9961 15.1172H23.5547V30.2344H15.9961C11.8125 30.2344 8.4375 26.8594 8.4375 22.6758Z" fill="#A259FF"/>
<path id="Vector_3" d="M8.4375 7.55859C8.4375 3.375 11.8125 0 15.9961 0H23.5547V15.1172H15.9961C11.8125 15.1172 8.4375 11.7422 8.4375 7.55859Z" fill="#F24E1E"/>
<path id="Vector_4" d="M23.5547 0H31.1133C35.2969 0 38.6719 3.375 38.6719 7.55859C38.6719 11.7422 35.2969 15.1172 31.1133 15.1172H23.5547V0Z" fill="#FF7262"/>
<path id="Vector_5" d="M38.6719 22.6758C38.6719 26.8594 35.2969 30.2344 31.1133 30.2344C26.9297 30.2344 23.5547 26.8594 23.5547 22.6758C23.5547 18.4922 26.9297 15.1172 31.1133 15.1172C35.2969 15.1172 38.6719 18.4922 38.6719 22.6758Z" fill="#1ABCFE"/>
</g>
<defs>
<clipPath id="clip0_93_201">
<rect width="45" height="45" fill="white"/>
</clipPath>
</defs>
</svg>
