<svg width="45" height="45" viewBox="0 0 45 45" fill="none" xmlns="http://www.w3.org/2000/svg">
<g id="devicon:googlecloud">
<path id="Vector" d="M28.3359 14.1679H28.4766L28.4062 14.0975L33.3281 9.17567V9.0702C29.1797 5.41395 23.4492 4.14832 18.1406 5.73035C12.832 7.31238 8.75391 11.5311 7.27734 16.8749C7.34766 16.8397 7.45312 16.8046 7.55859 16.8046C9.38672 15.6093 11.5664 14.9061 13.8516 14.9061C14.625 14.9061 15.3633 14.9764 16.1016 15.1171C16.1367 15.0819 16.1719 15.0819 16.207 15.0819C19.3711 11.6014 24.7148 11.1796 28.3711 14.1679H28.3359Z" fill="#EA4535"/>
<path id="Vector_2" d="M38.0039 16.8047C37.1953 13.8164 35.5078 11.1094 33.1523 9.03516L28.125 14.0273C30.2344 15.75 31.4648 18.3516 31.3945 21.0586V21.9375C37.3359 21.9375 37.3359 30.7969 31.3945 30.7969H22.4648V37.8281H22.4297L22.4648 37.8984H31.3945C36.5273 37.9336 41.0625 34.6289 42.5742 29.7773C44.0859 24.9258 42.2227 19.6523 38.0039 16.8047Z" fill="#557EBF"/>
<path id="Vector_3" d="M13.7109 37.9336H22.957V30.832H13.7109C13.043 30.832 12.4102 30.6914 11.8125 30.4453L6.46875 35.5781V35.6484C8.57813 37.1602 11.1094 37.9688 13.7461 37.9688L13.7109 37.9336Z" fill="#36A852"/>
<path id="Vector_4" d="M14.1328 14.7305C8.89453 14.7656 4.25391 18 2.56641 22.7461C0.878907 27.5273 2.56641 32.7656 6.71484 35.8594L12.1992 30.6211C9.17578 29.3203 8.47266 25.5234 10.793 23.3086C13.1133 21.0586 17.0508 21.7617 18.4219 24.6445L23.9062 19.4062C21.5859 16.4883 17.9648 14.7656 14.1328 14.8008V14.7305Z" fill="#F9BC15"/>
</g>
</svg>
