<svg width="45" height="45" viewBox="0 0 45 45" fill="none" xmlns="http://www.w3.org/2000/svg">
<g id="dotnet" clip-path="url(#clip0_93_182)">
<path id="Vector" d="M0 0H45V45H0V0Z" fill="#512BD4"/>
<path id="Vector_2" d="M8.02039 28.7499C7.70223 28.7499 7.43182 28.6439 7.20916 28.4319C6.9865 28.2144 6.87512 27.9561 6.875 27.6571C6.875 27.3526 6.98633 27.0916 7.20898 26.8741C7.43176 26.6566 7.70223 26.5479 8.02039 26.5479C8.34383 26.5479 8.61693 26.6566 8.83971 26.8741C9.06775 27.0916 9.18178 27.3526 9.18178 27.6571C9.18178 27.956 9.06775 28.2143 8.83971 28.4319C8.61705 28.644 8.344 28.7501 8.02057 28.7501M20.7403 28.5708H18.6722L13.2232 19.974C13.0872 19.7602 12.9727 19.5335 12.8811 19.2973H12.8333L12.8415 19.3509L12.8491 19.4124L12.8561 19.4815L12.8628 19.5581L12.8714 19.6875L12.8788 19.8337L12.885 19.9972L12.8899 20.1779L12.8934 20.3757L12.8952 20.5172L12.8969 20.9039V28.5704H11.0674V16.875H13.2708L18.5367 25.2673L18.6668 25.4728L18.7506 25.6078L18.8223 25.7265L18.8821 25.8289L18.9155 25.8884L18.9436 25.9404L18.9665 25.9852H18.9981L18.9921 25.9483L18.9809 25.8692L18.9703 25.7825L18.961 25.6881L18.9568 25.638L18.9487 25.5322L18.9417 25.4188L18.9355 25.2976L18.9281 25.1017L18.9229 24.8887L18.9197 24.6584L18.9187 24.4111V16.875H20.7401L20.7403 28.5708ZM29.6497 28.5708H23.2464V16.875H29.3952V18.5226H25.1396V21.8338H29.0612V23.4731H25.1396V26.9313H29.6497V28.5708ZM38.7503 18.5228H35.4727V28.5708H33.5795V18.5228H30.31V16.875H38.7499L38.7503 18.5228Z" fill="white"/>
</g>
<defs>
<clipPath id="clip0_93_182">
<rect width="45" height="45" fill="white"/>
</clipPath>
</defs>
</svg>
