<svg width="45" height="45" viewBox="0 0 45 45" fill="none" xmlns="http://www.w3.org/2000/svg">
<g id="git" clip-path="url(#clip0_93_209)">
<path id="Vector" d="M43.8529 20.5235L24.4761 1.14744C23.361 0.0315821 21.5511 0.0315821 20.4342 1.14744L16.4109 5.17143L21.5149 10.2754C22.7015 9.87498 24.0613 10.1436 25.0066 11.0889C25.9569 12.0403 26.2234 13.4117 25.8131 14.6021L30.7322 19.5215C31.9222 19.1112 33.2958 19.3763 34.2457 20.3283C35.5746 21.6562 35.5746 23.8088 34.2457 25.1374C33.9299 25.4533 33.5549 25.704 33.1423 25.875C32.7296 26.046 32.2872 26.134 31.8405 26.134C31.3938 26.134 30.9514 26.046 30.5387 25.875C30.126 25.704 29.7511 25.4533 29.4353 25.1374C28.9609 24.6625 28.6376 24.058 28.5059 23.3999C28.3742 22.7417 28.4401 22.0594 28.6952 21.4386L24.1081 16.8514L24.1073 28.9244C24.4402 29.0882 24.7441 29.3053 25.007 29.567C26.3352 30.8949 26.3352 33.0468 25.007 34.3775C23.6784 35.7053 21.5251 35.7053 20.198 34.3775C18.8698 33.0472 18.8698 30.8953 20.198 29.567C20.5165 29.2487 20.8949 28.9966 21.3114 28.8253V16.6404C20.8944 16.4699 20.5159 16.2175 20.198 15.8983C19.1918 14.8928 18.9496 13.4163 19.4657 12.1802L14.4338 7.14826L1.1475 20.4338C0.611483 20.97 0.310364 21.6971 0.310364 22.4553C0.310364 23.2135 0.611483 23.9406 1.1475 24.4768L20.5246 43.8528C21.6404 44.9686 23.4496 44.9686 24.5672 43.8528L43.8532 24.5668C44.3891 24.0304 44.6901 23.3032 44.6901 22.545C44.69 21.7868 44.3889 21.0597 43.8529 20.5235Z" fill="#F34F29"/>
</g>
<defs>
<clipPath id="clip0_93_209">
<rect width="45" height="45" fill="white"/>
</clipPath>
</defs>
</svg>
