<svg width="45" height="45" viewBox="0 0 45 45" fill="none" xmlns="http://www.w3.org/2000/svg">
<g id="python">
<path id="Vector" d="M22.2859 4.30594C20.8016 4.31297 19.3848 4.43919 18.1375 4.65997C14.4636 5.30895 13.7971 6.66739 13.7971 9.17297V12.4815H22.4782V13.5844H10.5388C8.01599 13.5844 5.80677 15.1007 5.1156 17.9863C4.31825 21.2927 4.2831 23.3564 5.1156 26.8091C5.73259 29.3794 7.20634 31.2103 9.7295 31.2103H12.7146V27.244C12.7146 24.3784 15.1935 21.851 18.1378 21.851H26.8091C29.2229 21.851 31.1495 19.8633 31.1495 17.4396V9.17333C31.1495 6.82032 29.1646 5.05301 26.8091 4.66032C25.3171 4.41212 23.7699 4.29926 22.2859 4.30594ZM17.5911 6.96692C18.4876 6.96692 19.2203 7.71118 19.2203 8.62665C19.2203 9.53825 18.488 10.2755 17.5911 10.2755C16.6911 10.2755 15.9624 9.53825 15.9624 8.62665C15.962 7.71118 16.6911 6.96692 17.5911 6.96692Z" fill="url(#paint0_linear_93_127)"/>
<path id="Vector_2" d="M32.2319 13.5843V17.4396C32.2319 20.4279 29.6979 22.9433 26.8087 22.9433H18.1374C15.7623 22.9433 13.7971 24.9764 13.7971 27.355V35.622C13.7971 37.9743 15.8424 39.3584 18.1374 40.0331C20.8853 40.8406 23.5206 40.9869 26.8087 40.0331C28.994 39.3999 31.1491 38.1266 31.1491 35.622V32.3131H22.4782V31.2099H35.4902C38.013 31.2099 38.9538 29.4504 39.8313 26.8087C40.7376 24.0894 40.6986 21.4741 39.8313 17.9859C39.2076 15.474 38.0169 13.584 35.4902 13.584L32.2319 13.5843ZM27.3547 34.5188C28.2551 34.5188 28.9839 35.2561 28.9839 36.1684C28.9839 37.0831 28.2547 37.8274 27.3547 37.8274C26.4582 37.8274 25.7259 37.0831 25.7259 36.1684C25.7259 35.2561 26.4582 34.5188 27.3547 34.5188Z" fill="url(#paint1_linear_93_127)"/>
<path id="Vector_3" opacity="0.444" d="M34.2102 42.0458C34.2102 43.2914 29.0015 44.3014 22.5767 44.3014C16.1515 44.3014 10.9427 43.2914 10.9427 42.0458C10.9427 40.8002 16.1511 39.7898 22.5767 39.7898C29.0015 39.7898 34.2102 40.7995 34.2102 42.0458Z" fill="url(#paint2_radial_93_127)"/>
</g>
<defs>
<linearGradient id="paint0_linear_93_127" x1="3.63407" y1="5.34046" x2="23.6569" y2="22.4158" gradientUnits="userSpaceOnUse">
<stop stop-color="#5A9FD4"/>
<stop offset="1" stop-color="#306998"/>
</linearGradient>
<linearGradient id="paint1_linear_93_127" x1="31.1902" y1="33.0301" x2="24.0097" y2="22.9606" gradientUnits="userSpaceOnUse">
<stop stop-color="#FFD43B"/>
<stop offset="1" stop-color="#FFE873"/>
</linearGradient>
<radialGradient id="paint2_radial_93_127" cx="0" cy="0" r="1" gradientUnits="userSpaceOnUse" gradientTransform="translate(22.5296 41.9812) rotate(-90) scale(2.25644 9.91894)">
<stop stop-color="#B8B8B8" stop-opacity="0.498"/>
<stop offset="1" stop-color="#7F7F7F" stop-opacity="0"/>
</radialGradient>
</defs>
</svg>
