<svg width="45" height="45" viewBox="0 0 45 45" fill="none" xmlns="http://www.w3.org/2000/svg">
<g id="cypress" clip-path="url(#clip0_93_167)">
<path id="Vector" d="M15.8147 17.8654C17.6333 17.8654 19.1113 18.8364 19.8689 20.5225L19.9259 20.6554L22.976 19.6183L22.9145 19.4619C21.735 16.5819 19.0118 14.7966 15.8147 14.7966C13.5647 14.7966 11.7366 15.5163 10.2259 16.9988C8.72437 18.4719 7.9664 20.3239 7.9664 22.5025C7.9664 24.6671 8.72929 26.5093 10.2259 27.9778C11.7366 29.4603 13.565 30.18 15.8147 30.18C19.0118 30.18 21.7304 28.3898 22.9145 25.5147L22.976 25.3586L19.9209 24.3215L19.8689 24.4586C19.1869 26.1212 17.6713 27.1108 15.8147 27.1108C14.5501 27.1108 13.4796 26.6703 12.6366 25.7988C11.7791 24.9181 11.3481 23.8051 11.3481 22.5025C11.3481 21.1905 11.77 20.1014 12.6366 19.1775C13.4842 18.3059 14.5501 17.8654 15.8147 17.8654Z" fill="black"/>
<path id="Vector_2" d="M29.0573 43.9909L28.1482 40.9928C36.3516 38.5016 41.8644 31.0703 41.8644 22.5024C41.8644 20.1388 41.4429 17.8276 40.6093 15.6392L43.5364 14.5261C44.5077 17.0747 45.0038 19.7796 45 22.5069C44.9954 32.4579 38.5917 41.0923 29.0573 43.9909Z" fill="url(#paint0_linear_93_167)"/>
<path id="Vector_3" d="M41.0168 16.8378C38.5112 8.66297 31.0704 3.17332 22.4975 3.17332C21.3351 3.17343 20.175 3.27649 19.0308 3.48129L18.4764 0.398086C19.8035 0.159684 21.1491 0.0392136 22.4975 0.0380859C32.4534 0.0380859 41.0973 6.41789 44.01 15.9143L41.0168 16.8378Z" fill="#69D3A7"/>
<path id="Vector_4" d="M1.44 30.4214C0.483047 27.8922 0 25.2256 0 22.5024C0 10.8984 8.71031 1.28808 20.262 0.151123L20.5699 3.26772C10.6284 4.24858 3.13066 12.518 3.13066 22.5021C3.12753 24.83 3.54632 27.1392 4.36676 29.3178L1.44 30.4214Z" fill="url(#paint1_linear_93_167)"/>
<path id="Vector_5" d="M22.616 15.0807L28.7543 30.1043L24.2831 40.9501L27.4138 41.5755L38.2982 15.0803H34.9161L30.5733 26.0877L26.1967 15.0803L22.616 15.0807Z" fill="black"/>
<path id="Vector_6" d="M24.8467 39.5863L24.1886 41.1824C24.037 41.5473 23.6911 41.7983 23.3026 41.8124C23.033 41.8219 22.7675 41.8314 22.493 41.8314C13.8966 41.8314 6.24235 36.0767 3.87915 27.8357L0.866608 28.6974C3.61372 38.2697 12.504 44.9571 22.4881 44.9621H22.493C22.8055 44.9621 23.1181 44.9575 23.4306 44.9431C25.0362 44.877 26.4716 43.868 27.0868 42.376L27.9777 40.2117L24.8467 39.5863Z" fill="url(#paint2_linear_93_167)"/>
</g>
<defs>
<linearGradient id="paint0_linear_93_167" x1="46.7226" y1="22.6442" x2="26.6351" y2="35.65" gradientUnits="userSpaceOnUse">
<stop offset="0.081" stop-color="#69D3A7"/>
<stop offset="1" stop-color="#69D3A7" stop-opacity="0"/>
</linearGradient>
<linearGradient id="paint1_linear_93_167" x1="15.0083" y1="0.321979" x2="2.38866" y2="27.0869" gradientUnits="userSpaceOnUse">
<stop stop-color="#69D3A7"/>
<stop offset="0.823" stop-color="#2AB586"/>
<stop offset="1" stop-color="#1CAE7F"/>
</linearGradient>
<linearGradient id="paint2_linear_93_167" x1="-0.031934" y1="32.7868" x2="33.0586" y2="43.1719" gradientUnits="userSpaceOnUse">
<stop offset="0.077" stop-color="#1CAE7F"/>
<stop offset="0.164" stop-color="#1CA379"/>
<stop offset="0.316" stop-color="#1C8568"/>
<stop offset="0.516" stop-color="#1B554D"/>
<stop offset="0.719" stop-color="#1B1E2E"/>
</linearGradient>
<clipPath id="clip0_93_167">
<rect width="45" height="45" fill="white"/>
</clipPath>
</defs>
</svg>
