<svg width="45" height="45" viewBox="0 0 45 45" fill="none" xmlns="http://www.w3.org/2000/svg">
<g id="fastapi" clip-path="url(#clip0_93_146)">
<path id="Vector" d="M19.9733 44.8544C19.3043 44.7746 18.6026 44.6716 18.4145 44.6252C18.1377 44.5596 17.8593 44.501 17.5795 44.4494C17.26 44.3875 16.943 44.3133 16.6293 44.2269C15.172 43.8092 15.0676 43.7751 13.969 43.3258C12.9582 42.9138 11.096 41.9512 10.459 41.5132C10.2846 41.3922 10.1215 41.2948 10.0965 41.2948C10.0716 41.2948 9.6641 41.008 9.1902 40.6575C6.17731 38.4275 3.91535 35.7205 2.28094 32.3863C1.99969 31.8136 1.77012 31.3056 1.77012 31.2577C1.77012 31.2106 1.71949 31.0802 1.65762 30.9705C1.53 30.7423 1.34824 30.2509 1.20164 29.7429C1.13863 29.527 1.06531 29.3143 0.981914 29.1055C0.913359 28.9438 0.858164 28.7469 0.858164 28.6674C0.858164 28.5876 0.789609 28.3282 0.705937 28.0891C0.622266 27.8518 0.554766 27.5716 0.554766 27.4668C0.554766 27.3628 0.489023 27.0028 0.407812 26.6667C0.210234 25.837 0 23.6879 0 22.4834C0 21.2804 0.210234 19.1313 0.407812 18.302C0.488672 17.9655 0.554766 17.5988 0.554766 17.4863C0.554766 17.3735 0.605742 17.1523 0.667266 16.9941C0.730547 16.8366 0.811406 16.5536 0.848672 16.3656C0.887344 16.1775 0.975234 15.8533 1.0466 15.6431L1.25402 15.0363C1.40625 14.5817 1.54758 14.1971 1.61508 14.0473C1.65375 13.9637 1.80457 13.622 1.95152 13.288C2.18918 12.7483 2.69859 11.7306 2.99637 11.1979C3.105 11.0028 3.14613 10.9381 3.73395 10.0195C4.66523 8.56122 6.25676 6.7468 7.73824 5.4534C8.26031 4.99743 10.0044 3.67344 10.0828 3.67344C10.1046 3.67344 10.2691 3.57465 10.4495 3.45372C10.923 3.13661 11.3875 2.86731 11.9929 2.56391C12.2102 2.45644 12.4254 2.34474 12.6383 2.22887C12.7385 2.17122 12.9266 2.08473 13.8923 1.65231C14.105 1.55739 14.3343 1.4709 14.9948 1.23993C15.1404 1.1893 15.4329 1.08208 15.6417 1.00368C15.852 0.92563 16.0991 0.860942 16.1912 0.860942C16.2819 0.860942 16.5206 0.797661 16.7214 0.719614C16.9218 0.641216 17.2856 0.551919 17.5314 0.521685C17.7761 0.492856 18.1012 0.424302 18.2538 0.370513C18.405 0.318481 18.8198 0.250981 19.1753 0.221099C19.6385 0.179172 20.1005 0.124659 20.5608 0.0576221C21.5058 -0.0808936 23.5603 -0.0808936 24.4955 0.0576221C24.9372 0.12101 25.3804 0.173175 25.8247 0.214067C26.1598 0.241841 26.5869 0.311802 26.775 0.369458C26.9631 0.425708 27.2886 0.49602 27.4975 0.521685C27.7063 0.549458 28.0578 0.635942 28.2786 0.715396C28.5001 0.796255 28.7511 0.860942 28.8376 0.860942C28.9241 0.860942 29.1027 0.909106 29.2331 0.969575C29.365 1.02864 29.6437 1.12743 29.854 1.1893C30.0628 1.25258 30.4211 1.37739 30.652 1.4695C30.8813 1.56125 31.1889 1.68219 31.3358 1.73704C31.6065 1.83899 33.6069 2.83989 33.879 3.0104C36.0872 4.38747 37.2231 5.28711 38.7503 6.86493C40.5918 8.76829 41.8141 10.5809 43.0583 13.2493C43.1462 13.4377 43.2805 13.7165 43.3575 13.8673C43.4331 14.0199 43.4964 14.1985 43.4964 14.2646C43.4964 14.3314 43.5596 14.5318 43.6377 14.7107C43.8493 15.197 44.0304 15.7503 44.1158 16.1732C44.158 16.3807 44.2364 16.6373 44.2898 16.7431C44.3436 16.8486 44.4066 17.1168 44.4315 17.3366C44.4561 17.5559 44.5289 17.9159 44.5908 18.1343C44.9494 19.3756 45.1276 23.0329 44.9107 24.6505C44.8464 25.1311 44.7736 25.7122 44.749 25.9414C44.7075 26.3341 44.5001 27.3491 44.3229 28.0315L44.1401 28.7539C43.7955 30.145 42.9441 32.1268 41.9045 33.9602C41.4925 34.6879 40.1112 36.656 39.8503 36.8866C39.8268 36.907 39.71 37.0448 39.5919 37.19C39.4738 37.337 39.0948 37.7476 38.7517 38.102C37.2396 39.6632 36.02 40.6286 33.879 41.9582C33.6252 42.1161 31.4719 43.168 31.0693 43.3315C30.8605 43.4151 30.5118 43.5564 30.2948 43.6443C30.0793 43.7312 29.8389 43.804 29.7633 43.8054C29.6877 43.8064 29.4887 43.8739 29.321 43.9548C29.1537 44.0356 28.9406 44.1031 28.8461 44.1045C28.7525 44.1059 28.4794 44.172 28.2389 44.2515C27.9988 44.3323 27.6648 44.4192 27.4971 44.4448C27.3298 44.4712 26.9715 44.5426 26.6994 44.6031C26.4277 44.6635 25.6061 44.7816 24.8759 44.8653C23.247 45.0555 21.6013 45.0518 19.9733 44.8544ZM21.6267 40.4599C21.7322 40.3776 21.8408 40.2138 21.8696 40.0988C21.9329 39.8447 32.1472 19.3672 32.3395 19.1106C32.5016 18.8936 32.5167 18.5463 32.3684 18.424C32.2903 18.3582 31.3123 18.3375 28.7016 18.3417C26.7434 18.3459 25.097 18.3473 25.0432 18.3459C24.9638 18.3431 24.9472 17.0346 24.9553 11.43C24.9609 7.62711 24.943 4.48098 24.9156 4.43739C24.8882 4.39309 24.7809 4.35758 24.6765 4.35758C24.5296 4.35758 24.461 4.42086 24.3707 4.64165C24.2002 5.05227 23.7291 5.98461 21.4358 10.4372C20.9595 11.3612 20.4843 12.2858 20.0102 13.211C19.6038 14.0062 18.9626 15.2546 18.5875 15.9848C17.5778 17.9477 16.5702 19.9116 15.5647 21.8766C13.8305 25.2643 13.6206 25.6682 13.5461 25.7575C13.4019 25.9319 13.3235 26.3341 13.4047 26.4853C13.4786 26.6238 13.6259 26.6294 17.287 26.6238C19.3799 26.6213 21.1061 26.6322 21.124 26.6484C21.1721 26.698 21.1542 39.7652 21.1046 40.0767C21.072 40.2813 21.0938 40.3896 21.1873 40.4831C21.349 40.6452 21.3933 40.6438 21.6267 40.4599Z" fill="#049688"/>
</g>
<defs>
<clipPath id="clip0_93_146">
<rect width="45" height="45" fill="white"/>
</clipPath>
</defs>
</svg>
