<svg width="45" height="45" viewBox="0 0 45 45" fill="none" xmlns="http://www.w3.org/2000/svg">
<g id="jira">
<path id="Vector" d="M37.9768 5.625H21.7283C21.7283 9.675 25.0063 12.9544 29.0574 12.9544H32.0456V15.8463C32.0456 19.8963 35.325 23.1757 39.375 23.1757V7.02316C39.3747 6.65243 39.2273 6.29697 38.9652 6.03482C38.703 5.77268 38.3476 5.62528 37.9768 5.625Z" fill="#2684FF"/>
<path id="Vector_2" d="M29.9254 13.725H13.6765C13.6765 17.7746 16.9548 21.054 21.0045 21.054H23.9942V23.9459C23.9942 27.9959 27.2735 31.2753 31.3235 31.2753V15.1228C31.323 14.7521 31.1755 14.3968 30.9134 14.1347C30.6513 13.8727 30.296 13.7255 29.9254 13.725Z" fill="url(#paint0_linear_93_195)"/>
<path id="Vector_3" d="M21.8739 21.8242H5.625C5.625 25.8756 8.90297 29.1536 12.9544 29.1536H15.9427V32.047C15.9427 36.097 19.222 39.3749 23.2717 39.3749V23.2238C23.2713 22.8531 23.124 22.4976 22.8619 22.2353C22.5999 21.973 22.2446 21.825 21.8739 21.8242Z" fill="url(#paint1_linear_93_195)"/>
</g>
<defs>
<linearGradient id="paint0_linear_93_195" x1="30.9853" y1="13.7432" x2="24.0722" y2="20.8715" gradientUnits="userSpaceOnUse">
<stop offset="0.176" stop-color="#0052CC"/>
<stop offset="1" stop-color="#2684FF"/>
</linearGradient>
<linearGradient id="paint1_linear_93_195" x1="23.4014" y1="21.8868" x2="15.4083" y2="29.6634" gradientUnits="userSpaceOnUse">
<stop offset="0.176" stop-color="#0052CC"/>
<stop offset="1" stop-color="#2684FF"/>
</linearGradient>
</defs>
</svg>
