<svg width="45" height="45" viewBox="0 0 45 45" fill="none" xmlns="http://www.w3.org/2000/svg">
<g id="nodejs" clip-path="url(#clip0_93_159)">
<path id="Vector" d="M40.1882 19.4253C40.17 19.4253 40.1523 19.4307 40.1372 19.4408L39.3124 19.9224C39.2969 19.932 39.2841 19.9455 39.2754 19.9615C39.2666 19.9775 39.2622 19.9956 39.2625 20.0138V20.9771C39.2625 21.0179 39.2818 21.0488 39.3124 21.0692L40.1372 21.5501C40.1522 21.5603 40.17 21.5657 40.1882 21.5657C40.2063 21.5657 40.2241 21.5603 40.2391 21.5501L41.0625 21.0692C41.0781 21.0594 41.091 21.0457 41.0999 21.0296C41.1088 21.0134 41.1135 20.9952 41.1135 20.9767V20.0145C41.1137 19.9962 41.1091 19.9781 41.1001 19.962C41.0912 19.946 41.0782 19.9326 41.0625 19.9231L40.2388 19.4411C40.2238 19.4311 40.2062 19.4253 40.1882 19.4253ZM22.2258 25.1853C22.0757 25.1853 21.9262 25.2219 21.799 25.2936L17.7388 27.6585C17.6087 27.735 17.5008 27.8441 17.426 27.9751C17.3511 28.1061 17.3118 28.2544 17.312 28.4053V33.1243C17.312 33.4315 17.4744 33.7184 17.7388 33.8724L18.8075 34.4862C19.3264 34.7422 19.5096 34.7415 19.7434 34.7415C20.5063 34.7415 20.944 34.2707 20.944 33.4618V28.8053C20.9435 28.7729 20.9305 28.742 20.9077 28.7189C20.8849 28.6959 20.854 28.6827 20.8216 28.6819H20.3034C20.2709 28.6825 20.2399 28.6957 20.2169 28.7187C20.1939 28.7417 20.1808 28.7728 20.1804 28.8053V33.4628C20.1804 33.8211 19.8046 34.18 19.2044 33.8731L18.0953 33.228C18.0545 33.2076 18.0337 33.1556 18.0337 33.1148V28.3947C18.0337 28.3539 18.0545 28.3033 18.0953 28.2826L22.1541 25.9281C22.1846 25.9078 22.236 25.9078 22.2767 25.9281L26.3366 28.2826C26.377 28.3033 26.3971 28.3437 26.3971 28.3951V33.1144C26.3971 33.1654 26.377 33.2072 26.3366 33.2276L22.2767 35.5926C22.2462 35.613 22.1948 35.613 22.1541 35.5926L21.1166 34.9672C21.086 34.9468 21.0452 34.9366 21.0146 34.957C20.7299 35.1208 20.68 35.1422 20.405 35.2344C20.3439 35.2547 20.2423 35.2952 20.4455 35.4077L21.799 36.217C21.9312 36.2883 22.0732 36.3291 22.2258 36.3291C22.3783 36.3291 22.5306 36.2887 22.6526 36.2377L26.7128 33.8728C26.8431 33.7962 26.951 33.6869 27.0259 33.5556C27.1008 33.4243 27.14 33.2757 27.1396 33.1246V28.4053C27.1396 28.098 26.9771 27.8122 26.7128 27.6585L22.6526 25.2936C22.5218 25.2219 22.3749 25.1846 22.2258 25.1853ZM28.5644 27.3404C28.3561 27.3412 28.1566 27.4247 28.0098 27.5726C27.863 27.7205 27.7809 27.9206 27.7815 28.1289C27.781 28.3372 27.8631 28.5372 28.0099 28.685C28.1567 28.8328 28.3561 28.9163 28.5644 28.9171C28.9923 28.9171 29.3477 28.5589 29.3477 28.1289C29.3466 27.9211 29.2639 27.722 29.1174 27.5745C28.9709 27.4271 28.7723 27.3428 28.5644 27.3404ZM28.5539 27.4736C28.6406 27.4725 28.7266 27.4887 28.8069 27.5212C28.8873 27.5536 28.9604 27.6018 29.022 27.6628C29.0836 27.7237 29.1325 27.7963 29.1658 27.8764C29.199 27.9564 29.2161 28.0423 29.2159 28.1289C29.2159 28.4875 28.9206 28.7948 28.5542 28.7948C28.1985 28.7948 27.9032 28.4974 27.9032 28.1289C27.9032 27.7605 28.2083 27.4736 28.5539 27.4736ZM28.2695 27.6884V28.5891H28.4432V28.2319H28.5957C28.6569 28.2319 28.6769 28.2523 28.6871 28.3033C28.6871 28.3138 28.7174 28.5388 28.7174 28.5796H28.9002C28.8798 28.5388 28.8696 28.4158 28.8594 28.3441C28.8496 28.2316 28.8397 28.1497 28.7174 28.1395C28.7785 28.1187 28.8801 28.0881 28.8801 27.9243C28.8801 27.6888 28.6762 27.6888 28.575 27.6888L28.2695 27.6884ZM28.4224 27.8319H28.5644C28.6158 27.8319 28.6966 27.8319 28.6966 27.9545C28.6966 27.9953 28.6769 28.0779 28.5644 28.0779H28.4221L28.4224 27.8319ZM23.3353 28.5385C22.1751 28.5385 21.4833 29.03 21.4833 29.8593C21.4833 30.7502 22.1751 30.9949 23.2843 31.1077C24.6167 31.241 24.7187 31.4357 24.7187 31.7019C24.7187 32.1624 24.3517 32.3572 23.497 32.3572C22.4184 32.3572 22.1846 32.0907 22.1031 31.5482C22.1031 31.4867 22.0532 31.4463 21.992 31.4463H21.4629C21.4306 31.4466 21.3997 31.4597 21.3769 31.4827C21.3541 31.5056 21.3413 31.5366 21.3412 31.569C21.3412 32.2651 21.7072 33.0842 23.4882 33.0842C24.7697 33.0842 25.5125 32.5716 25.5125 31.6709C25.5125 30.7903 24.9219 30.5551 23.671 30.3912C22.4089 30.2274 22.2771 30.1353 22.2771 29.8386C22.2771 29.5928 22.3889 29.2655 23.3248 29.2655C24.159 29.2655 24.474 29.4501 24.5964 30.0129C24.6025 30.0383 24.6168 30.061 24.637 30.0775C24.6573 30.0941 24.6824 30.1035 24.7085 30.1044H25.2475C25.2784 30.1044 25.309 30.0843 25.3297 30.0639C25.3482 30.0365 25.3585 30.0045 25.3596 29.9715C25.2784 28.9888 24.6378 28.5385 23.3353 28.5385Z" fill="#5FA04E"/>
<path id="Vector_2" d="M30.2597 8.67092C30.2164 8.67029 30.1737 8.68108 30.1359 8.70221C30.0967 8.72527 30.0639 8.75798 30.0409 8.79723C30.0178 8.83649 30.0051 8.88099 30.0041 8.92651V15.5812C30.0041 15.6424 29.9725 15.7043 29.9116 15.7451C29.8835 15.7601 29.8521 15.768 29.8202 15.768C29.7883 15.768 29.7569 15.7601 29.7288 15.7451L28.6509 15.121C28.5718 15.0758 28.4823 15.0521 28.3911 15.0521C28.3 15.0521 28.2104 15.0758 28.1313 15.121L23.8183 17.6294C23.7385 17.6744 23.672 17.7397 23.6255 17.8187C23.5791 17.8976 23.5543 17.9875 23.5536 18.0791V23.0853C23.5536 23.2696 23.6556 23.4439 23.8183 23.536L28.132 26.0444C28.2111 26.0896 28.3006 26.1133 28.3917 26.1133C28.4827 26.1133 28.5722 26.0896 28.6513 26.0444L32.9646 23.536C33.1274 23.4439 33.2293 23.2696 33.2293 23.0853V10.6059C33.2293 10.4115 33.1274 10.2368 32.9646 10.145L30.3912 8.70221C30.3504 8.68181 30.3052 8.6711 30.2597 8.67092ZM4.81183 14.9168C4.73062 14.9168 4.6494 14.9463 4.57839 14.9871L0.264716 17.4864C0.183644 17.5325 0.116362 17.5994 0.0698228 17.6803C0.0232835 17.7611 -0.000824665 17.8529 -1.05618e-05 17.9462L0.0105363 24.6617C0.0105363 24.7542 0.0608098 24.8463 0.142372 24.8874C0.180183 24.9122 0.224418 24.9255 0.269638 24.9255C0.314858 24.9255 0.359092 24.9122 0.396904 24.8874L2.9612 23.4133C3.12397 23.3212 3.22487 23.1469 3.22487 22.9626V19.8197C3.22487 19.6355 3.32683 19.4611 3.48995 19.369L4.57839 18.7344C4.6596 18.6831 4.75171 18.6627 4.84311 18.6627C4.93452 18.6627 5.02628 18.6831 5.09765 18.7344L6.18608 19.369C6.34886 19.4611 6.45081 19.6355 6.45081 19.8197V22.9626C6.45081 23.1469 6.55206 23.3212 6.71448 23.4133L9.25839 24.8874C9.29793 24.9127 9.34385 24.9261 9.39075 24.9261C9.43765 24.9261 9.48358 24.9127 9.52312 24.8874C9.56361 24.8654 9.59733 24.8328 9.62062 24.793C9.64392 24.7532 9.65591 24.7078 9.6553 24.6617V17.9462C9.6553 17.762 9.55335 17.5876 9.39022 17.4951L5.0871 14.9871C5.01461 14.9486 4.93532 14.9246 4.85366 14.9164L4.81183 14.9168ZM40.2026 14.9906C40.1136 14.9906 40.0254 15.0138 39.9438 15.0602L35.6294 17.5672C35.4667 17.6593 35.3658 17.8337 35.3658 18.0183V23.0245C35.3658 23.2087 35.4667 23.3831 35.6294 23.4752L39.9129 25.9316C39.99 25.9768 40.0778 26.0007 40.1672 26.0007C40.2567 26.0007 40.3445 25.9768 40.4216 25.9316L43.0161 24.4786C43.0566 24.4565 43.0902 24.4238 43.1134 24.3841C43.1367 24.3443 43.1486 24.2989 43.148 24.2529C43.1485 24.2069 43.1365 24.1617 43.1132 24.1221C43.09 24.0825 43.0564 24.0499 43.0161 24.0279L38.6824 21.5191C38.643 21.496 38.6102 21.4631 38.5871 21.4237C38.564 21.3842 38.5514 21.3395 38.5506 21.2938V19.7272C38.5501 19.6813 38.5621 19.6361 38.5853 19.5964C38.6085 19.5568 38.6421 19.5242 38.6824 19.5022L40.0359 18.7239C40.0755 18.6986 40.1214 18.6852 40.1683 18.6852C40.2152 18.6852 40.2611 18.6986 40.3007 18.7239L41.6528 19.5019C41.6924 19.5249 41.7254 19.5577 41.7487 19.5972C41.772 19.6366 41.7847 19.6814 41.7857 19.7272V20.9559C41.7857 21.0484 41.8363 21.1405 41.9175 21.1813C41.9571 21.2066 42.0031 21.22 42.05 21.22C42.097 21.22 42.143 21.2066 42.1826 21.1813L44.7458 19.6766C44.8244 19.6307 44.8894 19.5648 44.9341 19.4855C44.9789 19.4063 45.0017 19.3165 45.0003 19.2255V18.0074C45.0003 17.8232 44.8984 17.6498 44.7458 17.5574L40.4624 15.0599C40.3834 15.0147 40.294 14.9907 40.2029 14.9903L40.2026 14.9906ZM28.3911 18.7291C28.414 18.7291 28.4372 18.7344 28.4579 18.7449L29.9324 19.6049C29.9732 19.6253 29.9939 19.6759 29.9939 19.717V21.4369C29.9939 21.4882 29.9732 21.5297 29.9324 21.5501L28.4576 22.41C28.4369 22.4201 28.4142 22.4254 28.3911 22.4254C28.3681 22.4254 28.3454 22.4201 28.3247 22.41L26.8499 21.5501C26.8091 21.5297 26.7883 21.478 26.7883 21.4369V19.717C26.7883 19.6657 26.8094 19.6253 26.8499 19.6045L28.3247 18.7449C28.3453 18.7342 28.3679 18.7288 28.3911 18.7291Z" fill="#333333"/>
<path id="Vector_3" d="M16.8687 15.0796C16.7897 15.0342 16.7003 15.0103 16.6092 15.0103C16.5181 15.0103 16.4287 15.0342 16.3498 15.0796L12.0663 17.5676C11.9878 17.6134 11.9229 17.6792 11.8782 17.7583C11.8334 17.8375 11.8105 17.927 11.8118 18.0179V23.0034C11.8118 23.188 11.9137 23.362 12.0663 23.4541L16.3498 25.9418C16.4287 25.9872 16.5181 26.0111 16.6092 26.0111C16.7003 26.0111 16.7897 25.9872 16.8687 25.9418L21.1517 23.4541C21.3145 23.362 21.4063 23.188 21.4063 23.0034V18.0179C21.4063 17.8337 21.3043 17.6593 21.1517 17.5676L16.8687 15.0796Z" fill="url(#paint0_linear_93_159)"/>
<path id="Vector_4" d="M21.162 17.5675L16.8585 15.0795C16.8163 15.0581 16.772 15.0411 16.7263 15.0286L11.9036 23.3311C11.9443 23.3824 11.995 23.4232 12.0459 23.4541L16.3498 25.9418C16.4718 26.0135 16.6142 26.0339 16.7463 25.9927L21.2741 17.6597C21.2444 17.6207 21.206 17.5891 21.162 17.5675Z" fill="url(#paint1_linear_93_159)"/>
<path id="Vector_5" d="M21.1619 23.4538C21.2843 23.3821 21.3757 23.2594 21.4165 23.1261L16.7055 15.0181C16.5839 14.9977 16.4514 15.0079 16.3396 15.0796L12.0663 17.557L16.6753 26.0132C16.7361 26.003 16.8075 25.9826 16.8687 25.9517L21.1619 23.4538Z" fill="url(#paint2_linear_93_159)"/>
</g>
<defs>
<linearGradient id="paint0_linear_93_159" x1="18.3534" y1="16.9322" x2="14.4416" y2="24.8627" gradientUnits="userSpaceOnUse">
<stop stop-color="#3F873F"/>
<stop offset="0.33" stop-color="#3F8B3D"/>
<stop offset="0.637" stop-color="#3E9638"/>
<stop offset="0.934" stop-color="#3DA92E"/>
<stop offset="1" stop-color="#3DAE2B"/>
</linearGradient>
<linearGradient id="paint1_linear_93_159" x1="15.9583" y1="21.0929" x2="26.8726" y2="13.0783" gradientUnits="userSpaceOnUse">
<stop offset="0.138" stop-color="#3F873F"/>
<stop offset="0.402" stop-color="#52A044"/>
<stop offset="0.713" stop-color="#64B749"/>
<stop offset="0.908" stop-color="#6ABF4B"/>
</linearGradient>
<linearGradient id="paint2_linear_93_159" x1="11.6551" y1="20.509" x2="21.5665" y2="20.509" gradientUnits="userSpaceOnUse">
<stop offset="0.092" stop-color="#6ABF4B"/>
<stop offset="0.287" stop-color="#64B749"/>
<stop offset="0.598" stop-color="#52A044"/>
<stop offset="0.862" stop-color="#3F873F"/>
</linearGradient>
<clipPath id="clip0_93_159">
<rect width="45" height="45" fill="white"/>
</clipPath>
</defs>
</svg>
