<svg width="45" height="45" viewBox="0 0 45 45" fill="none" xmlns="http://www.w3.org/2000/svg">
<g id="pytorch">
<path id="Vector" d="M35.1914 13.4648L31.957 16.6992C37.2656 22.0078 37.2656 30.5508 31.957 35.7891C26.6484 41.0977 18.1055 41.0977 12.8672 35.7891C7.55859 30.4805 7.55859 21.9375 12.8672 16.6992L21.3047 8.26172L22.5 7.06641V0.703125L9.77344 13.4297C2.70703 20.4961 2.70703 31.9219 9.77344 39.0234C16.8398 46.125 28.2656 46.0898 35.2266 39.0234C42.293 31.9219 42.293 20.5664 35.1914 13.4648Z" fill="#EE4C2C"/>
<path id="Vector_2" d="M31.2079 10.3688C31.232 9.06821 30.1972 7.99431 28.8966 7.97022C27.5959 7.94613 26.522 8.98098 26.498 10.2816C26.4739 11.5822 27.5087 12.6561 28.8093 12.6802C30.11 12.7043 31.1839 11.6695 31.2079 10.3688Z" fill="#EE4C2C"/>
</g>
</svg>
